<?xml version="1.0" encoding="UTF-8"?>
<svg id="Layer_1" xmlns="http://www.w3.org/2000/svg" xmlns:xlink="http://www.w3.org/1999/xlink" viewBox="0 0 588.98 171.94">
  <defs>
    <style>
      .cls-1 {
        fill: url(#linear-gradient);
      }

      .cls-2 {
        fill: url(#linear-gradient-5);
      }

      .cls-2, .cls-3, .cls-4 {
        opacity: .3;
      }

      .cls-3 {
        fill: url(#linear-gradient-2);
      }

      .cls-4 {
        fill: url(#linear-gradient-9);
      }

      .cls-5 {
        fill: url(#linear-gradient-7);
      }

      .cls-5, .cls-6, .cls-7, .cls-8, .cls-9, .cls-10 {
        opacity: .6;
      }

      .cls-6 {
        fill: url(#linear-gradient-8);
      }

      .cls-7 {
        fill: url(#linear-gradient-3);
      }

      .cls-8 {
        fill: url(#linear-gradient-4);
      }

      .cls-9 {
        fill: url(#linear-gradient-6);
      }

      .cls-11 {
        fill: #fff;
      }

      .cls-10 {
        fill: url(#linear-gradient-10);
      }

      .cls-12 {
        fill: url(#linear-gradient-11);
      }
    </style>
    <linearGradient id="linear-gradient" x1="350.43" y1="32.1" x2="350.43" y2="60.07" gradientUnits="userSpaceOnUse">
      <stop offset=".04" stop-color="#ffb221"/>
      <stop offset="1" stop-color="#f7497c"/>
    </linearGradient>
    <linearGradient id="linear-gradient-2" x1="61.21" y1="-18.7" x2="61.89" y2="142.63" xlink:href="#linear-gradient"/>
    <linearGradient id="linear-gradient-3" x1="131.94" y1="-19" x2="132.63" y2="142.33" xlink:href="#linear-gradient"/>
    <linearGradient id="linear-gradient-4" x1="38.12" y1="-18.6" x2="38.81" y2="142.73" xlink:href="#linear-gradient"/>
    <linearGradient id="linear-gradient-5" x1="73.23" y1="-18.75" x2="73.92" y2="142.58" xlink:href="#linear-gradient"/>
    <linearGradient id="linear-gradient-6" x1="73.23" y1="-18.75" x2="73.92" y2="142.58" xlink:href="#linear-gradient"/>
    <linearGradient id="linear-gradient-7" x1="141.09" y1="-19.03" x2="141.77" y2="142.29" xlink:href="#linear-gradient"/>
    <linearGradient id="linear-gradient-8" x1="72.14" y1="-18.74" x2="72.83" y2="142.59" xlink:href="#linear-gradient"/>
    <linearGradient id="linear-gradient-9" x1="85.53" y1="-18.8" x2="86.21" y2="142.53" xlink:href="#linear-gradient"/>
    <linearGradient id="linear-gradient-10" x1="85.53" y1="-18.8" x2="86.21" y2="142.53" xlink:href="#linear-gradient"/>
    <linearGradient id="linear-gradient-11" x1="137.03" y1="-1.87" x2="69.29" y2="141.48" xlink:href="#linear-gradient"/>
  </defs>
  <g>
    <path class="cls-11" d="M257.28,123.7c-7.6,7.46-15.59,10.4-25.32,10.4-19.06,0-34.92-11.46-34.92-34.78s15.86-34.78,34.92-34.78c9.33,0,16.53,2.67,23.72,9.73l-10.26,10.79c-3.86-3.46-8.66-5.2-13.19-5.2-10.93,0-18.92,8-18.92,19.46,0,12.53,8.53,19.19,18.66,19.19,5.2,0,10.4-1.47,14.39-5.46l10.93,10.66Z"/>
    <path class="cls-11" d="M331.11,99.31c0,18.92-12.93,34.25-34.25,34.25s-34.12-15.33-34.12-34.25,13.06-34.25,33.98-34.25,34.38,15.46,34.38,34.25ZM279,99.31c0,10,6,19.32,17.86,19.32s17.86-9.33,17.86-19.32-6.93-19.46-17.86-19.46c-11.73,0-17.86,9.6-17.86,19.46Z"/>
    <path class="cls-1" d="M360.02,47.87c0,12.66-19.19,12.66-19.19,0s19.19-12.66,19.19,0Z"/>
    <rect class="cls-11" x="342.3" y="66.13" width="16.26" height="65.97"/>
    <path class="cls-11" d="M421.59,132.1v-34.38c0-10-5.46-17.59-15.86-17.59s-16.79,8.4-16.79,18.39v33.58h-16.13v-65.84h14.53l1.07,8.93c6.66-6.53,13.33-9.86,21.59-9.86,15.46,0,27.85,11.59,27.85,32.25v34.52h-16.26Z"/>
    <path class="cls-11" d="M515.82,66.26l-27.99,66.1h-17.59l-28.12-66.1h17.72l9.06,21.72,10.13,27.72,10-27.45,9.06-21.99h17.72Z"/>
    <path class="cls-11" d="M588.98,99.31c0,18.92-12.93,34.25-34.25,34.25s-34.12-15.33-34.12-34.25,13.06-34.25,33.98-34.25,34.38,15.46,34.38,34.25ZM536.87,99.31c0,10,6,19.32,17.86,19.32s17.86-9.33,17.86-19.32-6.93-19.46-17.86-19.46c-11.73,0-17.86,9.6-17.86,19.46Z"/>
  </g>
  <g>
    <path class="cls-3" d="M17.13,86.95c0-14.36,4.47-27.67,12.09-38.64C11.57,60.57,0,80.97,0,104.08c0,37.48,30.38,67.85,67.85,67.85,23.11,0,43.52-11.57,55.77-29.22-10.97,7.61-24.28,12.09-38.64,12.09-37.48,0-67.85-30.38-67.85-67.85Z"/>
    <path class="cls-7" d="M123.62,142.72c7.07-4.91,13.17-11.12,17.93-18.3-3.5,2.32-7.23,4.34-11.14,5.99-1.84,4.36-4.12,8.47-6.79,12.31Z"/>
    <path class="cls-8" d="M47.52,30.38c-7.18,4.76-13.39,10.86-18.3,17.93,3.84-2.66,7.95-4.95,12.31-6.79,1.65-3.92,3.67-7.64,5.99-11.14Z"/>
    <path class="cls-2" d="M104.08,135.71c-37.48,0-67.85-30.38-67.85-67.85,0-9.34,1.89-18.23,5.3-26.33-4.36,1.84-8.47,4.12-12.31,6.79-7.61,10.97-12.09,24.28-12.09,38.64,0,37.48,30.38,67.85,67.85,67.85,14.36,0,27.67-4.47,38.64-12.09,2.66-3.84,4.95-7.95,6.79-12.31-8.1,3.41-16.99,5.3-26.33,5.3Z"/>
    <path class="cls-9" d="M104.08,135.71c-37.48,0-67.85-30.38-67.85-67.85,0-9.34,1.89-18.23,5.3-26.33-4.36,1.84-8.47,4.12-12.31,6.79-7.61,10.97-12.09,24.28-12.09,38.64,0,37.48,30.38,67.85,67.85,67.85,14.36,0,27.67-4.47,38.64-12.09,2.66-3.84,4.95-7.95,6.79-12.31-8.1,3.41-16.99,5.3-26.33,5.3Z"/>
    <path class="cls-5" d="M150.82,70.48c-.71,12.54-6.41,23.75-15.16,31.66.02.65.05,1.29.05,1.94,0,9.34-1.89,18.23-5.3,26.33,3.92-1.65,7.64-3.67,11.14-5.99,7.13-10.74,11.29-23.62,11.29-37.47,0-5.68-.71-11.2-2.02-16.47Z"/>
    <path class="cls-6" d="M67.85,36.23c.98,0,1.94.03,2.91.07,8.14-8.75,19.63-14.33,32.42-14.72-5.79-1.61-11.89-2.49-18.2-2.49-13.85,0-26.73,4.16-37.47,11.29-2.32,3.5-4.34,7.23-5.99,11.14,8.1-3.41,16.99-5.3,26.33-5.3Z"/>
    <path class="cls-4" d="M58.35,67.82c0-12.18,4.71-23.26,12.41-31.52-.97-.04-1.93-.07-2.91-.07-9.34,0-18.23,1.89-26.33,5.3-3.41,8.1-5.3,16.99-5.3,26.33,0,37.48,30.38,67.85,67.85,67.85,9.34,0,18.23-1.89,26.33-5.3,3.41-8.1,5.3-16.99,5.3-26.33,0-.65-.03-1.29-.05-1.94-8.21,7.43-19.09,11.95-31.03,11.95-25.56,0-46.27-20.72-46.27-46.27Z"/>
    <path class="cls-10" d="M58.35,67.82c0-12.18,4.71-23.26,12.41-31.52-.97-.04-1.93-.07-2.91-.07-9.34,0-18.23,1.89-26.33,5.3-3.41,8.1-5.3,16.99-5.3,26.33,0,37.48,30.38,67.85,67.85,67.85,9.34,0,18.23-1.89,26.33-5.3,3.41-8.1,5.3-16.99,5.3-26.33,0-.65-.03-1.29-.05-1.94-8.21,7.43-19.09,11.95-31.03,11.95-25.56,0-46.27-20.72-46.27-46.27Z"/>
    <path class="cls-12" d="M104.08,0c-23.62,0-44.41,12.08-56.57,30.38-2.32,3.5-4.34,7.23-5.99,11.14-3.41,8.1-5.3,16.99-5.3,26.33,0,37.48,30.38,67.85,67.85,67.85,9.34,0,18.23-1.89,26.33-5.3,3.92-1.65,7.64-3.67,11.14-5.99,18.31-12.15,30.39-32.95,30.39-56.57C171.94,30.38,141.56,0,104.08,0ZM135.66,102.14c-8.21,7.43-19.09,11.95-31.03,11.95-25.56,0-46.27-20.72-46.27-46.27,0-12.18,4.71-23.26,12.41-31.52,8.14-8.75,19.63-14.33,32.42-14.72.48-.01.96-.04,1.44-.04,25.56,0,46.27,20.72,46.27,46.27,0,.89-.03,1.78-.08,2.66-.71,12.54-6.41,23.75-15.16,31.66Z"/>
    <path class="cls-11" d="M118.94,55.34l10.02-10.02c-6.05-6.05-14.09-9.38-22.64-9.38-5.64,0-11.05,1.46-15.82,4.18,6.84,2.42,13.17,5.91,18.8,10.26,3.63.61,6.98,2.31,9.63,4.96Z"/>
    <path class="cls-11" d="M83.68,90.6c6.24,6.24,14.44,9.36,22.64,9.36s16.4-3.12,22.64-9.36l-10.02-10.02c-6.96,6.96-18.28,6.96-25.23,0-6.96-6.96-6.96-18.28,0-25.23,3.37-3.37,7.85-5.23,12.62-5.23,1.01,0,2,.1,2.98.27-5.63-4.35-11.96-7.84-18.8-10.26-2.46,1.4-4.76,3.14-6.82,5.2-12.48,12.48-12.48,32.79,0,45.28Z"/>
  </g>
</svg>